<?xml version="1.0" encoding="iso-8859-1"?>
<!-- Generator: Adobe Illustrator 19.0.0, SVG Export Plug-In . SVG Version: 6.00 Build 0)  -->
<svg version="1.1" id="Layer_1" xmlns="http://www.w3.org/2000/svg" xmlns:xlink="http://www.w3.org/1999/xlink" x="0px" y="0px"
	 viewBox="0 0 206.817 206.817" style="enable-background:new 0 0 206.817 206.817;" xml:space="preserve">
<g>
	<g>
		<g>
			<path d="M165.953,87.498c-1.88-29.879-27.386-53.623-58.468-53.623c-24.661,0-46.371,14.815-54.894,37.152
				c-0.719-0.03-1.44-0.045-2.159-0.045C22.624,70.982,0,93.851,0,121.962c0,28.111,22.624,50.98,50.432,50.98
				c0.538,0,1.076-0.009,1.612-0.026c0.139,0.017,0.282,0.026,0.425,0.026h114.106c0.272,0,0.54-0.033,0.797-0.094
				c22.17-1.485,39.445-20.092,39.445-42.64C206.817,107.122,188.613,88.256,165.953,87.498z M166.372,165.763
				c-0.139,0.007-0.278,0.022-0.414,0.047H53.047c-0.235-0.037-0.479-0.051-0.73-0.042c-0.625,0.03-1.256,0.042-1.886,0.042
				c-23.876,0-43.3-19.671-43.3-43.848s19.424-43.848,43.3-43.848c1.438,0,2.862,0.071,4.266,0.209
				c1.678,0.169,3.221-0.852,3.74-2.441c6.811-20.86,26.521-34.874,49.047-34.874c28.368,0,51.448,22.445,51.448,50.087
				c0,0.978,0.402,1.915,1.114,2.589c0.71,0.676,1.67,1.039,2.645,0.972c0.611-0.033,1.226-0.049,1.846-0.049
				c19.381,0,35.148,15.971,35.148,35.602C199.685,149.172,185.053,164.79,166.372,165.763z"/>
			<path d="M134.35,105.621c-1.454-1.334-3.705-1.238-5.039,0.209l-5.607,6.093c-0.189-0.031-0.359-0.113-0.557-0.113h-9.699
				c-0.124-0.348-0.257-0.687-0.415-1.017l6.852-6.852c0.219-0.219,0.343-0.488,0.494-0.743l7.806,0.324
				c0.051,0.002,0.101,0.004,0.15,0.004c1.901,0,3.482-1.501,3.56-3.418c0.082-1.968-1.447-3.629-3.414-3.71l-6.129-0.254
				l-0.254-6.129c-0.08-1.968-1.678-3.533-3.71-3.414c-1.968,0.082-3.496,1.743-3.414,3.71l0.343,8.274
				c-0.155,0.112-0.334,0.175-0.474,0.314l-6.852,6.852c-0.331-0.158-0.669-0.291-1.017-0.415v-9.699
				c0-0.31-0.102-0.587-0.176-0.873l5.75-5.29c1.448-1.334,1.543-3.588,0.209-5.039c-1.335-1.447-3.585-1.543-5.039-0.209
				l-4.513,4.153l-4.513-4.153c-1.452-1.334-3.705-1.238-5.039,0.209c-1.334,1.45-1.24,3.705,0.209,5.039l6.093,5.607
				c-0.031,0.188-0.113,0.359-0.113,0.557v9.699c-0.348,0.124-0.687,0.257-1.017,0.415L91.973,98.9
				c-0.219-0.219-0.488-0.343-0.743-0.494l0.324-7.806c0.082-1.968-1.447-3.629-3.414-3.71c-2.028-0.082-3.63,1.448-3.71,3.414
				l-0.254,6.129l-6.129,0.254c-1.968,0.082-3.496,1.743-3.414,3.71c0.078,1.917,1.657,3.418,3.56,3.418
				c0.049,0,0.099-0.002,0.15-0.004l8.274-0.343c0.112,0.155,0.175,0.334,0.314,0.474l6.852,6.852
				c-0.158,0.331-0.291,0.669-0.415,1.017H83.67c-0.31,0-0.587,0.102-0.873,0.176l-5.29-5.75c-1.33-1.448-3.585-1.544-5.039-0.209
				c-1.448,1.334-1.543,3.588-0.209,5.039l4.153,4.513l-4.153,4.513c-1.334,1.45-1.24,3.705,0.209,5.039
				c0.686,0.63,1.551,0.942,2.413,0.942c0.963,0,1.922-0.387,2.626-1.151l5.607-6.093c0.189,0.031,0.359,0.113,0.557,0.113h9.699
				c0.124,0.348,0.256,0.687,0.415,1.017l-6.852,6.852c-0.219,0.219-0.343,0.488-0.494,0.743l-7.806-0.324
				c-2.061-0.101-3.63,1.448-3.71,3.414c-0.082,1.968,1.447,3.629,3.414,3.71l6.129,0.254l0.254,6.129
				c0.078,1.917,1.657,3.418,3.56,3.418c0.049,0,0.099-0.002,0.15-0.004c1.968-0.082,3.496-1.743,3.414-3.71l-0.343-8.274
				c0.155-0.112,0.334-0.175,0.474-0.315l6.852-6.852c0.331,0.158,0.669,0.291,1.017,0.415v9.699c0,0.31,0.102,0.587,0.176,0.873
				l-5.75,5.29c-1.448,1.334-1.543,3.588-0.209,5.039c1.332,1.448,3.588,1.541,5.039,0.209l4.513-4.153l4.513,4.153
				c0.686,0.63,1.551,0.942,2.413,0.942c0.963,0,1.922-0.387,2.626-1.151c1.334-1.45,1.24-3.705-0.209-5.039l-6.093-5.607
				c0.03-0.188,0.112-0.359,0.112-0.557v-9.699c0.348-0.124,0.687-0.257,1.017-0.415l6.852,6.852
				c0.219,0.219,0.488,0.343,0.743,0.493l-0.324,7.806c-0.082,1.968,1.447,3.629,3.414,3.71c0.051,0.002,0.101,0.004,0.15,0.004
				c1.901,0,3.482-1.501,3.56-3.418l0.254-6.129l6.129-0.254c1.968-0.082,3.496-1.743,3.414-3.71
				c-0.082-1.966-1.727-3.517-3.71-3.414l-8.274,0.343c-0.112-0.155-0.175-0.334-0.315-0.474l-6.852-6.852
				c0.158-0.331,0.291-0.669,0.415-1.017h9.699c0.31,0,0.587-0.102,0.873-0.176l5.29,5.75c0.704,0.765,1.663,1.151,2.626,1.151
				c0.862,0,1.727-0.312,2.413-0.942c1.448-1.334,1.543-3.588,0.209-5.039l-4.153-4.513l4.153-4.513
				C135.893,109.21,135.798,106.955,134.35,105.621z M103.409,118.943c-1.966,0-3.566-1.6-3.566-3.566s1.6-3.566,3.566-3.566
				s3.566,1.6,3.566,3.566S105.375,118.943,103.409,118.943z"/>
		</g>
	</g>
</g>
<g>
</g>
<g>
</g>
<g>
</g>
<g>
</g>
<g>
</g>
<g>
</g>
<g>
</g>
<g>
</g>
<g>
</g>
<g>
</g>
<g>
</g>
<g>
</g>
<g>
</g>
<g>
</g>
<g>
</g>
</svg>
