<?xml version="1.0" encoding="iso-8859-1"?>
<!-- Generator: Adobe Illustrator 19.0.0, SVG Export Plug-In . SVG Version: 6.00 Build 0)  -->
<svg version="1.1" id="Layer_1" xmlns="http://www.w3.org/2000/svg" xmlns:xlink="http://www.w3.org/1999/xlink" x="0px" y="0px"
	 viewBox="0 0 192.398 192.398" style="enable-background:new 0 0 192.398 192.398;" xml:space="preserve">
<g>
	<g>
		<g>
			<path d="M96.199,28.451c-37.358,0-67.75,30.393-67.75,67.75s30.393,67.75,67.75,67.75s67.75-30.393,67.75-67.75
				S133.557,28.451,96.199,28.451z M96.199,156.82c-33.426,0-60.619-27.193-60.619-60.619s27.193-60.619,60.619-60.619
				s60.619,27.193,60.619,60.619C156.818,129.627,129.625,156.82,96.199,156.82z"/>
			<path d="M167.607,163.757c-1.393-1.393-3.649-1.393-5.042,0s-1.393,3.649,0,5.042l7.563,7.563
				c0.696,0.696,1.609,1.045,2.521,1.045c0.912,0,1.825-0.348,2.521-1.045c1.393-1.393,1.393-3.649,0-5.042L167.607,163.757z"/>
			<path d="M170.128,30.259l-7.563,7.565c-1.393,1.393-1.393,3.651,0,5.042c0.696,0.696,1.609,1.045,2.521,1.045
				s1.825-0.348,2.521-1.045l7.563-7.565c1.393-1.393,1.393-3.651,0-5.042C173.777,28.866,171.521,28.866,170.128,30.259z"/>
			<path d="M103.311,188.793c-1.971,0-3.566,1.597-3.566,3.566v10.697c0,1.969,1.595,3.566,3.566,3.566
				c1.971,0,3.566-1.597,3.566-3.566v-10.697C106.877,190.39,105.282,188.793,103.311,188.793z"/>
			<path d="M201.371,99.745h-10.697c-1.971,0-3.566,1.597-3.566,3.566c0,1.969,1.595,3.566,3.566,3.566h10.697
				c1.971,0,3.566-1.597,3.566-3.566C204.937,101.342,203.341,99.745,201.371,99.745z"/>
			<path d="M39.015,42.866c0.696,0.696,1.609,1.045,2.521,1.045s1.825-0.348,2.521-1.045c1.393-1.391,1.393-3.649,0-5.042
				l-7.563-7.565c-1.393-1.393-3.649-1.393-5.042,0c-1.393,1.391-1.393,3.649,0,5.042L39.015,42.866z"/>
			<path d="M39.015,163.757l-7.563,7.563c-1.393,1.393-1.393,3.649,0,5.042c0.696,0.696,1.609,1.045,2.521,1.045
				c0.912,0,1.825-0.348,2.521-1.045l7.563-7.563c1.393-1.393,1.393-3.649,0-5.042C42.664,162.364,40.408,162.364,39.015,163.757z"
				/>
			<path d="M103.311,17.829c1.971,0,3.566-1.597,3.566-3.566V3.566c0-1.969-1.595-3.566-3.566-3.566
				c-1.971,0-3.566,1.597-3.566,3.566v10.697C99.745,16.232,101.34,17.829,103.311,17.829z"/>
			<path d="M15.949,99.745H5.251c-1.971,0-3.566,1.597-3.566,3.566c0,1.969,1.595,3.566,3.566,3.566h10.697
				c1.971,0,3.566-1.597,3.566-3.566C19.514,101.342,17.919,99.745,15.949,99.745z"/>
		</g>
	</g>
</g>
<g>
</g>
<g>
</g>
<g>
</g>
<g>
</g>
<g>
</g>
<g>
</g>
<g>
</g>
<g>
</g>
<g>
</g>
<g>
</g>
<g>
</g>
<g>
</g>
<g>
</g>
<g>
</g>
<g>
</g>
</svg>
