<?xml version="1.0" encoding="iso-8859-1"?>
<!-- Generator: Adobe Illustrator 19.0.0, SVG Export Plug-In . SVG Version: 6.00 Build 0)  -->
<svg version="1.1" id="Layer_1" xmlns="http://www.w3.org/2000/svg" xmlns:xlink="http://www.w3.org/1999/xlink" x="0px" y="0px"
	 viewBox="0 0 192.554 192.554" style="enable-background:new 0 0 192.554 192.554;" xml:space="preserve">
<g>
	<g>
		<path d="M124.906,185.422V83.796V67.75V8.124c2.121,1.237,3.566,3.512,3.566,6.14v3.566h7.132v-3.566
			C135.604,6.397,129.205,0,121.34,0c-7.865,0-14.263,6.397-14.263,14.263v3.566h7.132v-3.566c0-2.627,1.445-4.902,3.566-6.14
			v49.219l-11.463-14.765c-0.045-0.058-0.12-0.076-0.168-0.131c-0.243-0.278-0.541-0.477-0.859-0.669
			c-0.151-0.089-0.275-0.209-0.437-0.275c-0.056-0.023-0.094-0.075-0.152-0.095L67.16,27.973L29.625,14.535
			c-1.621-0.588-3.428,0.08-4.29,1.574l-7.132,12.355c-0.862,1.494-0.531,3.388,0.782,4.503l30.404,25.786l30.403,25.789
			c0.045,0.038,0.103,0.051,0.15,0.087c0.244,0.188,0.507,0.34,0.791,0.459c0.069,0.029,0.13,0.069,0.201,0.093
			c0.316,0.11,0.644,0.186,0.987,0.203l35.855,1.804v98.234H39.327v7.132h135.501v-7.132H124.906z M50.743,50.548L25.868,29.453
			l4.156-7.202l30.709,10.997l-4.995,8.65L50.743,50.548z M81.147,76.338L56.272,55.239l11.288-19.55l30.708,10.993l-8.56,14.828
			L81.147,76.338z M117.775,80.047l-29.67-1.495l15.465-26.786l0.361-0.626l13.844,17.833V80.047z"/>
	</g>
</g>
<g>
</g>
<g>
</g>
<g>
</g>
<g>
</g>
<g>
</g>
<g>
</g>
<g>
</g>
<g>
</g>
<g>
</g>
<g>
</g>
<g>
</g>
<g>
</g>
<g>
</g>
<g>
</g>
<g>
</g>
</svg>
